<?xml version="1.0" encoding="utf-8"?>
<svg version="1.0" width="800" height="800" viewBox="0 0 600 600" xmlns="http://www.w3.org/2000/svg">
  <path d="M266 19.3c0 1.3.6 2.9 1.3 3.5.9 1 1.3 24.5 1.8 107.5.3 58.4.8 107.3 1 108.6l.4 2.4-68.4.1c-48.9.1-68.5.4-68.8 1.2-.2.6 1.2 2.9 3.1 5s4.4 5.7 5.5 8c1.2 2.2 3 4.9 4.1 5.9s2 2.3 2 3 1.4 3.1 3 5.3c1.7 2.3 3 4.6 3 5 0 .5 1.3 2.7 2.8 4.8 1.6 2.1 3.9 6 5.2 8.6 1.3 2.7 2.7 4.8 3.1 4.8s1.2 1.2 1.8 2.7c.6 1.6 2 4.1 3.1 5.8 1.1 1.6 2.3 3.7 2.6 4.5.4.8 4.2 7.4 8.6 14.6 4.3 7.3 7.8 13.7 7.8 14.3s.4 1.1.9 1.1 1.8 1.6 2.8 3.5 4.1 7.1 6.8 11.6c7.5 12.1 10.4 17.1 12.1 20.4.8 1.6 2.3 4.3 3.4 6 1.1 1.6 3.1 5.4 4.5 8.2 1.5 2.9 3 5.3 3.4 5.3s1.6 1.9 2.7 4.2c1 2.2 3 5.7 4.4 7.7 3.4 4.8 15 23.7 15 24.6 0 .4 1.3 2.5 2.8 4.8 3.8 5.7 5 7.8 6.1 10.4.6 1.1 1.5 2.4 2 2.8.6.3 1.1 1.7 1.1 3.1 0 1.3.5 2.4 1 2.4.6 0 1.5 1 2 2.2.6 1.3 1.9 3.6 3 5.3 1.1 1.6 2.5 4 3.1 5.2.7 1.3 1.6 2.3 2.1 2.3.4 0 .8.6.8 1.3 0 .8 1.2 3.2 2.8 5.3 2.8 4 12.2 20 12.2 20.8 0 .3 1.9 3.3 4.3 6.8s4.6 7 5 7.8c.5.8 2.3 4.2 4.2 7.5s3.9 7.1 4.5 8.5 2.2 3.9 3.6 5.7c1.3 1.7 2.4 3.6 2.4 4 0 .5 2.2 4.3 5 8.4 2.7 4 5 7.9 5 8.5s.9 1.9 2 2.9 2 2.2 2 2.6c0 .5 1.3 3 2.8 5.6s3.6 6.8 4.7 9.3c2 4.6 5.7 9 7.7 9 .6 0 .8-1.2.4-3.2-2.1-10.2-2.5-26.6-2.6-119.8l-.1-102.5 7.8.2c26 .7 126.7.3 127.6-.6.6-.6-.3-2.5-2.6-5.3-1.9-2.4-4.5-6.2-5.7-8.6-1.2-2.3-2.6-4.2-3.1-4.2s-.9-.6-.9-1.3c0-.6-1.9-4.2-4.3-7.9-2.3-3.6-5.1-8.1-6.2-9.9s-3.4-5.5-5.2-8.3c-1.7-2.8-4.4-7.4-5.8-10.1-1.5-2.8-3.2-5.7-3.9-6.5-.6-.8-2.2-3.5-3.4-6-1.3-2.5-3.2-5.9-4.2-7.5-3.7-5.8-4.9-8-6.1-10.8-.6-1.5-1.5-2.7-2-2.7s-.9-.6-.9-1.4-.6-2.1-1.3-2.8c-1-1.1-6.6-9.7-10.4-16.3-.7-1.1-4.6-7.6-8.8-14.5s-8-13.3-8.6-14.3c-.5-.9-1.4-2.5-1.9-3.5-.6-.9-1.4-2.7-2-4-.5-1.2-2.7-4.8-4.7-8-2.1-3.1-4.1-6.5-4.5-7.5-.7-1.6-7-11.7-12.4-19.8-1.3-1.9-2.4-3.9-2.4-4.4 0-.4-1.1-2.3-2.5-4.1s-2.5-3.6-2.5-4.1-1.6-3.2-3.5-6.2c-1.9-2.9-3.5-5.7-3.5-6.2s-1.3-2.8-3-5.1c-1.6-2.2-3-4.4-3-4.9 0-.4-1.6-3.1-3.5-6-1.9-3-3.5-5.8-3.5-6.3s-1.1-2.4-2.5-4.2-2.5-3.5-2.5-3.7c0-.3-1.6-2.9-3.5-5.8-1.9-3-3.5-5.8-3.5-6.4s-1.3-2.6-2.9-4.5c-1.5-1.9-3.6-4.9-4.5-6.5-.9-1.7-3-5.3-4.7-8-1.6-2.8-3.5-6.1-4.2-7.5-.6-1.4-1.5-2.7-1.9-3s-1.2-1.7-1.8-3c-.5-1.4-1.9-3.9-3-5.5-1.1-1.7-2.4-3.9-3-5s-1.9-3.4-3-5c-1-1.7-3-5.3-4.4-8.2-1.5-2.8-3-5.4-3.5-5.7-1.4-.9-8.6-14.5-10-18.8-1.2-3.5-5.5-7.8-8-7.8-.6 0-1.1 1-1.1 2.3zm18.5 40.9c2.2 2.9 4.5 5.7 5.2 6.1s1.3 1.4 1.3 2.2c0 .7 2 4.4 4.5 8.1 2.6 3.8 4.3 7.4 4 8.2s.3 2.5 1.3 3.6c1.1 1.2 3.3 4.6 5 7.6 1.9 3.4 3.7 5.4 4.7 5.4 1.1-.2 1.4.3.9 1.9-.4 1.4 0 2.5 1.4 3.6 1.1.9 4 5.5 6.5 10.3 2.4 4.8 5.7 10.2 7.2 12 1.6 1.8 3.4 4.7 4.1 6.4s2 3.6 2.8 4.4c.9.7 1.6 1.8 1.6 2.5s.7 1.8 1.5 2.5 1.5 2.3 1.5 3.7 1.3 3.7 2.9 5.4c1.6 1.6 3.2 4.2 3.6 5.9.4 1.6 1.1 3 1.6 3s.9 1 .9 2.2c0 1.3 1.4 3.6 3 5.2 1.7 1.6 3 3.6 3 4.4s1.8 3.6 4.1 6.3c2.4 2.9 3.9 5.5 3.5 6.4-.3.9.3 1.9 1.4 2.5s2 1.6 2 2.2c0 .5 1.4 2.6 3 4.5 1.7 1.8 3 4 3 4.9 0 2.3 4.9 9.4 6.5 9.4 1 0 1.5 1 1.5 2.7s2 5.9 5 10.3c2.7 4.1 5 8.5 5 9.7s.5 2.5 1 2.8c1.8 1.1 13 18.7 13 20.4 0 .9 1.4 3.1 3 4.9 1.7 1.8 3 3.9 3 4.6s.9 2.1 2.1 3.2c4.6 4.2 8.2 9.6 8.1 12.4 0 1.6.8 3.6 1.9 4.6 1 .9 1.9 2.4 1.9 3.1 0 .8.9 2.6 2 4s2 3.1 2 3.7 1.2 2.2 2.5 3.5c1.4 1.2 2.3 2.7 2 3.1-.3.5.3 1.7 1.4 2.7s3 4 4.1 6.6c1.2 2.6 2.7 4.7 3.5 4.7.9 0 1.5 1 1.5 2.5 0 1.3 1.3 3.9 2.8 5.7 1.6 1.8 3.6 5.4 4.6 8.1 1 2.6 2.6 5.2 3.7 5.7 3.8 2.1 1.8 4.9-4.1 5.7-1.4.2-26.1.6-55 .8-28.9.3-53.8.9-55.5 1.3-1.8.5-3.5 1.9-4.3 3.6-.8 1.5-2 3-2.9 3.3-.8.3-1.9 1.7-2.4 3-.5 1.4-.9 38.2-1 88.2-.1 47.2-.4 87.3-.8 89.2-.6 2.9-1.1 3.4-3.9 3.7-2.9.3-3.2.1-3.2-2.3 0-1.4-1.5-4.6-3.4-7.1s-4-6.1-4.6-8-1.5-3.4-1.9-3.4c-.9 0-6.1-7.9-9.5-14.5s-5.2-8.8-6.5-8c-.7.4-1.1-.5-1.1-2.3 0-1.6-.7-3.5-1.5-4.2s-1.5-2.1-1.5-3.1c0-1.1-.7-1.9-1.5-1.9-.9 0-1.5-.9-1.5-2.3 0-1.2-1.3-3.8-3-5.7-1.6-2-2.9-4.7-3-6.3 0-2.6-3-6.7-5-6.7-.5 0-1-1.1-1-2.5s-.7-2.8-1.5-3.1c-.7-.3-2.1-2.5-3-4.9-1.1-2.6-2.6-4.7-4.2-5.4-2-.9-2.4-1.7-2.1-4.1.3-1.6.2-3.1-.2-3.2-1.6-.8-6-7.7-6-9.6 0-1.2-.6-2.5-1.4-2.9-.7-.4-2.1-2.6-3.1-4.7s-2.7-4.1-3.7-4.4c-1-.2-1.8-1.4-1.8-2.6s-1.5-3.1-3.5-4.6c-3.5-2.5-4.3-4.4-2.5-5.5.6-.4-.5-2.6-2.5-5.2-1.9-2.5-3.5-5.1-3.5-5.8s-1.6-3-3.5-5.1-3.5-4.5-3.5-5.3-1.1-3.1-2.3-5c-1.3-2-3.9-6-5.7-8.8-1.7-2.9-3.8-5.3-4.6-5.3-.7 0-1.1-.6-.8-1.4.3-.7-1.8-5.3-4.5-10.2-2.8-4.8-5.1-9.6-5.1-10.6 0-.9-.6-2.1-1.2-2.5-2.3-1.5-7.7-9-8.4-11.7-.3-1.5-1.6-3.4-2.9-4.2-1.2-.8-2.7-3.2-3.4-5.4-.6-2.1-2.3-5.2-3.6-6.9-1.4-1.6-3.2-4.5-4-6.4s-2.6-4.4-4-5.5c-2-1.6-2.4-2.5-1.9-5.1.5-2.4.3-3.1-.9-3.1-2 0-4.7-3.8-4.7-6.7 0-1.2-.8-2.7-1.8-3.2s-1.8-1.9-1.9-3.1-.9-2.7-1.7-3.3c-.8-.7-1.6-2.3-1.8-3.7s-1-2.5-1.8-2.5c-1.9 0-8-12.2-7.7-15.5.2-1.9.9-2.6 3.7-3.2 1.9-.4 26.6-.7 54.8-.8 56.4-.1 55 .1 61-6.2 3-3.2 3.4-4.3 4.2-12.4.5-4.9.8-46 .8-91.4-.1-45.4.1-83.1.6-83.8 1.2-2 2-1.5 6.1 4z" fill="#f90"/>
  <circle style="stroke: rgb(0, 0, 0);" cx="306.575" cy="301.315" r="291.224"/>
  <path d="M 268.44 23.618 C 268.44 24.918 269.04 26.518 269.74 27.118 C 270.64 28.118 271.04 51.618 271.54 134.618 C 271.84 193.018 272.34 241.918 272.54 243.218 L 272.94 245.618 L 204.54 245.718 C 155.64 245.818 136.04 246.118 135.74 246.918 C 135.54 247.518 136.94 249.818 138.84 251.918 C 140.74 254.018 143.24 257.618 144.34 259.918 C 145.54 262.118 147.34 264.818 148.44 265.818 C 149.54 266.818 150.44 268.118 150.44 268.818 C 150.44 269.518 151.84 271.918 153.44 274.118 C 155.14 276.418 156.44 278.718 156.44 279.118 C 156.44 279.618 157.74 281.818 159.24 283.918 C 160.84 286.018 163.14 289.918 164.44 292.518 C 165.74 295.218 167.14 297.318 167.54 297.318 C 167.94 297.318 168.74 298.518 169.34 300.018 C 169.94 301.618 171.34 304.118 172.44 305.818 C 173.54 307.418 174.74 309.518 175.04 310.318 C 175.44 311.118 179.24 317.718 183.64 324.918 C 187.94 332.218 191.44 338.618 191.44 339.218 C 191.44 339.818 191.84 340.318 192.34 340.318 C 192.84 340.318 194.14 341.918 195.14 343.818 C 196.14 345.718 199.24 350.918 201.94 355.418 C 209.44 367.518 212.34 372.518 214.04 375.818 C 214.84 377.418 216.34 380.118 217.44 381.818 C 218.54 383.418 220.54 387.218 221.94 390.018 C 223.44 392.918 224.94 395.318 225.34 395.318 C 225.74 395.318 226.94 397.218 228.04 399.518 C 229.04 401.718 231.04 405.218 232.44 407.218 C 235.84 412.018 247.44 430.918 247.44 431.818 C 247.44 432.218 248.74 434.318 250.24 436.618 C 254.04 442.318 255.24 444.418 256.34 447.018 C 256.94 448.118 257.84 449.418 258.34 449.818 C 258.94 450.118 259.44 451.518 259.44 452.918 C 259.44 454.218 259.94 455.318 260.44 455.318 C 261.04 455.318 261.94 456.318 262.44 457.518 C 263.04 458.818 264.34 461.118 265.44 462.818 C 266.54 464.418 267.94 466.818 268.54 468.018 C 269.24 469.318 270.14 470.318 270.64 470.318 C 271.04 470.318 271.44 470.918 271.44 471.618 C 271.44 472.418 272.64 474.818 274.24 476.918 C 277.04 480.918 286.44 496.918 286.44 497.718 C 286.44 498.018 288.34 501.018 290.74 504.518 C 293.14 508.018 295.34 511.518 295.74 512.318 C 296.24 513.118 298.04 516.518 299.94 519.818 C 301.84 523.118 303.84 526.918 304.44 528.318 C 305.04 529.718 306.64 532.218 308.04 534.018 C 309.34 535.718 310.44 537.618 310.44 538.018 C 310.44 538.518 312.64 542.318 315.44 546.418 C 318.14 550.418 320.44 554.318 320.44 554.918 C 320.44 555.518 321.34 556.818 322.44 557.818 C 323.54 558.818 324.44 560.018 324.44 560.418 C 324.44 560.918 325.74 563.418 327.24 566.018 C 328.74 568.618 330.84 572.818 331.94 575.318 C 333.94 579.918 337.64 584.318 339.64 584.318 C 340.24 584.318 340.44 583.118 340.04 581.118 C 337.94 570.918 337.54 554.518 337.44 461.318 L 337.34 358.818 L 345.14 359.018 C 371.14 359.718 471.84 359.318 472.74 358.418 C 473.34 357.818 472.44 355.918 470.14 353.118 C 468.24 350.718 465.64 346.918 464.44 344.518 C 463.24 342.218 461.84 340.318 461.34 340.318 C 460.84 340.318 460.44 339.718 460.44 339.018 C 460.44 338.418 458.54 334.818 456.14 331.118 C 453.84 327.518 451.04 323.018 449.94 321.218 C 448.84 319.418 446.54 315.718 444.74 312.918 C 443.04 310.118 440.34 305.518 438.94 302.818 C 437.44 300.018 435.74 297.118 435.04 296.318 C 434.44 295.518 432.84 292.818 431.64 290.318 C 430.34 287.818 428.44 284.418 427.44 282.818 C 423.74 277.018 422.54 274.818 421.34 272.018 C 420.74 270.518 419.84 269.318 419.34 269.318 C 418.84 269.318 418.44 268.718 418.44 267.918 C 418.44 267.118 417.84 265.818 417.14 265.118 C 416.14 264.018 410.54 255.418 406.74 248.818 C 406.04 247.718 402.14 241.218 397.94 234.318 C 393.74 227.418 389.94 221.018 389.34 220.018 C 388.84 219.118 387.94 217.518 387.44 216.518 C 386.84 215.618 386.04 213.818 385.44 212.518 C 384.94 211.318 382.74 207.718 380.74 204.518 C 378.64 201.418 376.64 198.018 376.24 197.018 C 375.54 195.418 369.24 185.318 363.84 177.218 C 362.54 175.318 361.44 173.318 361.44 172.818 C 361.44 172.418 360.34 170.518 358.94 168.718 C 357.54 166.918 356.44 165.118 356.44 164.618 C 356.44 164.118 354.84 161.418 352.94 158.418 C 351.04 155.518 349.44 152.718 349.44 152.218 C 349.44 151.718 348.14 149.418 346.44 147.118 C 344.84 144.918 343.44 142.718 343.44 142.218 C 343.44 141.818 341.84 139.118 339.94 136.218 C 338.04 133.218 336.44 130.418 336.44 129.918 C 336.44 129.418 335.34 127.518 333.94 125.718 C 332.54 123.918 331.44 122.218 331.44 122.018 C 331.44 121.718 329.84 119.118 327.94 116.218 C 326.04 113.218 324.44 110.418 324.44 109.818 C 324.44 109.218 323.14 107.218 321.54 105.318 C 320.04 103.418 317.94 100.418 317.04 98.818 C 316.14 97.118 314.04 93.518 312.34 90.818 C 310.74 88.018 308.84 84.718 308.14 83.318 C 307.54 81.918 306.64 80.618 306.24 80.318 C 305.84 80.018 305.04 78.618 304.44 77.318 C 303.94 75.918 302.54 73.418 301.44 71.818 C 300.34 70.118 299.04 67.918 298.44 66.818 C 297.84 65.718 296.54 63.418 295.44 61.818 C 294.44 60.118 292.44 56.518 291.04 53.618 C 289.54 50.818 288.04 48.218 287.54 47.918 C 286.14 47.018 278.94 33.418 277.54 29.118 C 276.34 25.618 272.04 21.318 269.54 21.318 C 268.94 21.318 268.44 22.318 268.44 23.618 L 268.44 23.618 Z M 286.94 64.518 C 289.14 67.418 291.44 70.218 292.14 70.618 C 292.84 71.018 293.44 72.018 293.44 72.818 C 293.44 73.518 295.44 77.218 297.94 80.918 C 300.54 84.718 302.24 88.318 301.94 89.118 C 301.64 89.918 302.24 91.618 303.24 92.718 C 304.34 93.918 306.54 97.318 308.24 100.318 C 310.14 103.718 311.94 105.718 312.94 105.718 C 314.04 105.518 314.34 106.018 313.84 107.618 C 313.44 109.018 313.84 110.118 315.24 111.218 C 316.34 112.118 319.24 116.718 321.74 121.518 C 324.14 126.318 327.44 131.718 328.94 133.518 C 330.54 135.318 332.34 138.218 333.04 139.918 C 333.74 141.618 335.04 143.518 335.84 144.318 C 336.74 145.018 337.44 146.118 337.44 146.818 C 337.44 147.518 338.14 148.618 338.94 149.318 C 339.74 150.018 340.44 151.618 340.44 153.018 C 340.44 154.418 341.74 156.718 343.34 158.418 C 344.94 160.018 346.54 162.618 346.94 164.318 C 347.34 165.918 348.04 167.318 348.54 167.318 C 349.04 167.318 349.44 168.318 349.44 169.518 C 349.44 170.818 350.84 173.118 352.44 174.718 C 354.14 176.318 355.44 178.318 355.44 179.118 C 355.44 179.918 357.24 182.718 359.54 185.418 C 361.94 188.318 363.44 190.918 363.04 191.818 C 362.74 192.718 363.34 193.718 364.44 194.318 C 365.54 194.918 366.44 195.918 366.44 196.518 C 366.44 197.018 367.84 199.118 369.44 201.018 C 371.14 202.818 372.44 205.018 372.44 205.918 C 372.44 208.218 377.34 215.318 378.94 215.318 C 379.94 215.318 380.44 216.318 380.44 218.018 C 380.44 219.718 382.44 223.918 385.44 228.318 C 388.14 232.418 390.44 236.818 390.44 238.018 C 390.44 239.218 390.94 240.518 391.44 240.818 C 393.24 241.918 404.44 259.518 404.44 261.218 C 404.44 262.118 405.84 264.318 407.44 266.118 C 409.14 267.918 410.44 270.018 410.44 270.718 C 410.44 271.418 411.34 272.818 412.54 273.918 C 417.14 278.118 420.74 283.518 420.64 286.318 C 420.64 287.918 421.44 289.918 422.54 290.918 C 423.54 291.818 424.44 293.318 424.44 294.018 C 424.44 294.818 425.34 296.618 426.44 298.018 C 427.54 299.418 428.44 301.118 428.44 301.718 C 428.44 302.318 429.64 303.918 430.94 305.218 C 432.34 306.418 433.24 307.918 432.94 308.318 C 432.64 308.818 433.24 310.018 434.34 311.018 C 435.44 312.018 437.34 315.018 438.44 317.618 C 439.64 320.218 441.14 322.318 441.94 322.318 C 442.84 322.318 443.44 323.318 443.44 324.818 C 443.44 326.118 444.74 328.718 446.24 330.518 C 447.84 332.318 449.84 335.918 450.84 338.618 C 451.84 341.218 453.44 343.818 454.54 344.318 C 458.34 346.418 456.34 349.218 450.44 350.018 C 449.04 350.218 424.34 350.618 395.44 350.818 C 366.54 351.118 341.64 351.718 339.94 352.118 C 338.14 352.618 336.44 354.018 335.64 355.718 C 334.84 357.218 333.64 358.718 332.74 359.018 C 331.94 359.318 330.84 360.718 330.34 362.018 C 329.84 363.418 329.44 400.218 329.34 450.218 C 329.24 497.418 328.94 537.518 328.54 539.418 C 327.94 542.318 327.44 542.818 324.64 543.118 C 321.74 543.418 321.44 543.218 321.44 540.818 C 321.44 539.418 319.94 536.218 318.04 533.718 C 316.14 531.218 314.04 527.618 313.44 525.718 C 312.84 523.818 311.94 522.318 311.54 522.318 C 310.64 522.318 305.44 514.418 302.04 507.818 C 298.64 501.218 296.84 499.018 295.54 499.818 C 294.84 500.218 294.44 499.318 294.44 497.518 C 294.44 495.918 293.74 494.018 292.94 493.318 C 292.14 492.618 291.44 491.218 291.44 490.218 C 291.44 489.118 290.74 488.318 289.94 488.318 C 289.04 488.318 288.44 487.418 288.44 486.018 C 288.44 484.818 287.14 482.218 285.44 480.318 C 283.84 478.318 282.54 475.618 282.44 474.018 C 282.44 471.418 279.44 467.318 277.44 467.318 C 276.94 467.318 276.44 466.218 276.44 464.818 C 276.44 463.418 275.74 462.018 274.94 461.718 C 274.24 461.418 272.84 459.218 271.94 456.818 C 270.84 454.218 269.34 452.118 267.74 451.418 C 265.74 450.518 265.34 449.718 265.64 447.318 C 265.94 445.718 265.84 444.218 265.44 444.118 C 263.84 443.318 259.44 436.418 259.44 434.518 C 259.44 433.318 258.84 432.018 258.04 431.618 C 257.34 431.218 255.94 429.018 254.94 426.918 C 253.94 424.818 252.24 422.818 251.24 422.518 C 250.24 422.318 249.44 421.118 249.44 419.918 C 249.44 418.718 247.94 416.818 245.94 415.318 C 242.44 412.818 241.64 410.918 243.44 409.818 C 244.04 409.418 242.94 407.218 240.94 404.618 C 239.04 402.118 237.44 399.518 237.44 398.818 C 237.44 398.118 235.84 395.818 233.94 393.718 C 232.04 391.618 230.44 389.218 230.44 388.418 C 230.44 387.618 229.34 385.318 228.14 383.418 C 226.84 381.418 224.24 377.418 222.44 374.618 C 220.74 371.718 218.64 369.318 217.84 369.318 C 217.14 369.318 216.74 368.718 217.04 367.918 C 217.34 367.218 215.24 362.618 212.54 357.718 C 209.74 352.918 207.44 348.118 207.44 347.118 C 207.44 346.218 206.84 345.018 206.24 344.618 C 203.94 343.118 198.54 335.618 197.84 332.918 C 197.54 331.418 196.24 329.518 194.94 328.718 C 193.74 327.918 192.24 325.518 191.54 323.318 C 190.94 321.218 189.24 318.118 187.94 316.418 C 186.54 314.818 184.74 311.918 183.94 310.018 C 183.14 308.118 181.34 305.618 179.94 304.518 C 177.94 302.918 177.54 302.018 178.04 299.418 C 178.54 297.018 178.34 296.318 177.14 296.318 C 175.14 296.318 172.44 292.518 172.44 289.618 C 172.44 288.418 171.64 286.918 170.64 286.418 C 169.64 285.918 168.84 284.518 168.74 283.318 C 168.64 282.118 167.84 280.618 167.04 280.018 C 166.24 279.318 165.44 277.718 165.24 276.318 C 165.04 274.918 164.24 273.818 163.44 273.818 C 161.54 273.818 155.44 261.618 155.74 258.318 C 155.94 256.418 156.64 255.718 159.44 255.118 C 161.34 254.718 186.04 254.418 214.24 254.318 C 270.64 254.218 269.24 254.418 275.24 248.118 C 278.24 244.918 278.64 243.818 279.44 235.718 C 279.94 230.818 280.24 189.718 280.24 144.318 C 280.14 98.918 280.34 61.218 280.84 60.518 C 282.04 58.518 282.84 59.018 286.94 64.518 L 286.94 64.518 Z" fill="#f90"/>
</svg>