<svg version="1.0" xmlns="http://www.w3.org/2000/svg" width="800" height="800" viewBox="0 0 600 600"><path d="M266 19.3c0 1.3.6 2.9 1.3 3.5.9 1 1.3 24.5 1.8 107.5.3 58.4.8 107.3 1 108.6l.4 2.4-68.4.1c-48.9.1-68.5.4-68.8 1.2-.2.6 1.2 2.9 3.1 5s4.4 5.7 5.5 8c1.2 2.2 3 4.9 4.1 5.9s2 2.3 2 3 1.4 3.1 3 5.3c1.7 2.3 3 4.6 3 5 0 .5 1.3 2.7 2.8 4.8 1.6 2.1 3.9 6 5.2 8.6 1.3 2.7 2.7 4.8 3.1 4.8s1.2 1.2 1.8 2.7c.6 1.6 2 4.1 3.1 5.8 1.1 1.6 2.3 3.7 2.6 4.5.4.8 4.2 7.4 8.6 14.6 4.3 7.3 7.8 13.7 7.8 14.3s.4 1.1.9 1.1 1.8 1.6 2.8 3.5 4.1 7.1 6.8 11.6c7.5 12.1 10.4 17.1 12.1 20.4.8 1.6 2.3 4.3 3.4 6 1.1 1.6 3.1 5.4 4.5 8.2 1.5 2.9 3 5.3 3.4 5.3s1.6 1.9 2.7 4.2c1 2.2 3 5.7 4.4 7.7 3.4 4.8 15 23.7 15 24.6 0 .4 1.3 2.5 2.8 4.8 3.8 5.7 5 7.8 6.1 10.4.6 1.1 1.5 2.4 2 2.8.6.3 1.1 1.7 1.1 3.1 0 1.3.5 2.4 1 2.4.6 0 1.5 1 2 2.2.6 1.3 1.9 3.6 3 5.3 1.1 1.6 2.5 4 3.1 5.2.7 1.3 1.6 2.3 2.1 2.3.4 0 .8.6.8 1.3 0 .8 1.2 3.2 2.8 5.3 2.8 4 12.2 20 12.2 20.8 0 .3 1.9 3.3 4.3 6.8s4.6 7 5 7.8c.5.8 2.3 4.2 4.2 7.5s3.9 7.1 4.5 8.5 2.2 3.9 3.6 5.7c1.3 1.7 2.4 3.6 2.4 4 0 .5 2.2 4.3 5 8.4 2.7 4 5 7.9 5 8.5s.9 1.9 2 2.9 2 2.2 2 2.6c0 .5 1.3 3 2.8 5.6s3.6 6.8 4.7 9.3c2 4.6 5.7 9 7.7 9 .6 0 .8-1.2.4-3.2-2.1-10.2-2.5-26.6-2.6-119.8l-.1-102.5 7.8.2c26 .7 126.7.3 127.6-.6.6-.6-.3-2.5-2.6-5.3-1.9-2.4-4.5-6.2-5.7-8.6-1.2-2.3-2.6-4.2-3.1-4.2s-.9-.6-.9-1.3c0-.6-1.9-4.2-4.3-7.9-2.3-3.6-5.1-8.1-6.2-9.9s-3.4-5.5-5.2-8.3c-1.7-2.8-4.4-7.4-5.8-10.1-1.5-2.8-3.2-5.7-3.9-6.5-.6-.8-2.2-3.5-3.4-6-1.3-2.5-3.2-5.9-4.2-7.5-3.7-5.8-4.9-8-6.1-10.8-.6-1.5-1.5-2.7-2-2.7s-.9-.6-.9-1.4-.6-2.1-1.3-2.8c-1-1.1-6.6-9.7-10.4-16.3-.7-1.1-4.6-7.6-8.8-14.5s-8-13.3-8.6-14.3c-.5-.9-1.4-2.5-1.9-3.5-.6-.9-1.4-2.7-2-4-.5-1.2-2.7-4.8-4.7-8-2.1-3.1-4.1-6.5-4.5-7.5-.7-1.6-7-11.7-12.4-19.8-1.3-1.9-2.4-3.9-2.4-4.4 0-.4-1.1-2.3-2.5-4.1s-2.5-3.6-2.5-4.1-1.6-3.2-3.5-6.2c-1.9-2.9-3.5-5.7-3.5-6.2s-1.3-2.8-3-5.1c-1.6-2.2-3-4.4-3-4.9 0-.4-1.6-3.1-3.5-6-1.9-3-3.5-5.8-3.5-6.3s-1.1-2.4-2.5-4.2-2.5-3.5-2.5-3.7c0-.3-1.6-2.9-3.5-5.8-1.9-3-3.5-5.8-3.5-6.4s-1.3-2.6-2.9-4.5c-1.5-1.9-3.6-4.9-4.5-6.5-.9-1.7-3-5.3-4.7-8-1.6-2.8-3.5-6.1-4.2-7.5-.6-1.4-1.5-2.7-1.9-3s-1.2-1.7-1.8-3c-.5-1.4-1.9-3.9-3-5.5-1.1-1.7-2.4-3.9-3-5s-1.9-3.4-3-5c-1-1.7-3-5.3-4.4-8.2-1.5-2.8-3-5.4-3.5-5.7-1.4-.9-8.6-14.5-10-18.8-1.2-3.5-5.5-7.8-8-7.8-.6 0-1.1 1-1.1 2.3zm18.5 40.9c2.2 2.9 4.5 5.7 5.2 6.1s1.3 1.4 1.3 2.2c0 .7 2 4.4 4.5 8.1 2.6 3.8 4.3 7.4 4 8.2s.3 2.5 1.3 3.6c1.1 1.2 3.3 4.6 5 7.6 1.9 3.4 3.7 5.4 4.7 5.4 1.1-.2 1.4.3.9 1.9-.4 1.4 0 2.5 1.4 3.6 1.1.9 4 5.5 6.5 10.3 2.4 4.8 5.7 10.2 7.2 12 1.6 1.8 3.4 4.7 4.1 6.4s2 3.6 2.8 4.4c.9.7 1.6 1.8 1.6 2.5s.7 1.8 1.5 2.5 1.5 2.3 1.5 3.7 1.3 3.7 2.9 5.4c1.6 1.6 3.2 4.2 3.6 5.9.4 1.6 1.1 3 1.6 3s.9 1 .9 2.2c0 1.3 1.4 3.6 3 5.2 1.7 1.6 3 3.6 3 4.4s1.8 3.6 4.1 6.3c2.4 2.9 3.9 5.5 3.5 6.4-.3.9.3 1.9 1.4 2.5s2 1.6 2 2.2c0 .5 1.4 2.6 3 4.5 1.7 1.8 3 4 3 4.9 0 2.3 4.9 9.4 6.5 9.4 1 0 1.5 1 1.5 2.7s2 5.9 5 10.3c2.7 4.1 5 8.5 5 9.7s.5 2.5 1 2.8c1.8 1.1 13 18.7 13 20.4 0 .9 1.4 3.1 3 4.9 1.7 1.8 3 3.9 3 4.6s.9 2.1 2.1 3.2c4.6 4.2 8.2 9.6 8.1 12.4 0 1.6.8 3.6 1.9 4.6 1 .9 1.9 2.4 1.9 3.1 0 .8.9 2.6 2 4s2 3.1 2 3.7 1.2 2.2 2.5 3.5c1.4 1.2 2.3 2.7 2 3.1-.3.5.3 1.7 1.4 2.7s3 4 4.1 6.6c1.2 2.6 2.7 4.7 3.5 4.7.9 0 1.5 1 1.5 2.5 0 1.3 1.3 3.9 2.8 5.7 1.6 1.8 3.6 5.4 4.6 8.1 1 2.6 2.6 5.2 3.7 5.7 3.8 2.1 1.8 4.9-4.1 5.7-1.4.2-26.1.6-55 .8-28.9.3-53.8.9-55.5 1.3-1.8.5-3.5 1.9-4.3 3.6-.8 1.5-2 3-2.9 3.3-.8.3-1.9 1.7-2.4 3-.5 1.4-.9 38.2-1 88.2-.1 47.2-.4 87.3-.8 89.2-.6 2.9-1.1 3.4-3.9 3.7-2.9.3-3.2.1-3.2-2.3 0-1.4-1.5-4.6-3.4-7.1s-4-6.1-4.6-8-1.5-3.4-1.9-3.4c-.9 0-6.1-7.9-9.5-14.5s-5.2-8.8-6.5-8c-.7.4-1.1-.5-1.1-2.3 0-1.6-.7-3.5-1.5-4.2s-1.5-2.1-1.5-3.1c0-1.1-.7-1.9-1.5-1.9-.9 0-1.5-.9-1.5-2.3 0-1.2-1.3-3.8-3-5.7-1.6-2-2.9-4.7-3-6.3 0-2.6-3-6.7-5-6.7-.5 0-1-1.1-1-2.5s-.7-2.8-1.5-3.1c-.7-.3-2.1-2.5-3-4.9-1.1-2.6-2.6-4.7-4.2-5.4-2-.9-2.4-1.7-2.1-4.1.3-1.6.2-3.1-.2-3.2-1.6-.8-6-7.7-6-9.6 0-1.2-.6-2.5-1.4-2.9-.7-.4-2.1-2.6-3.1-4.7s-2.7-4.1-3.7-4.4c-1-.2-1.8-1.4-1.8-2.6s-1.5-3.1-3.5-4.6c-3.5-2.5-4.3-4.4-2.5-5.5.6-.4-.5-2.6-2.5-5.2-1.9-2.5-3.5-5.1-3.5-5.8s-1.6-3-3.5-5.1-3.5-4.5-3.5-5.3-1.1-3.1-2.3-5c-1.3-2-3.9-6-5.7-8.8-1.7-2.9-3.8-5.3-4.6-5.3-.7 0-1.1-.6-.8-1.4.3-.7-1.8-5.3-4.5-10.2-2.8-4.8-5.1-9.6-5.1-10.6 0-.9-.6-2.1-1.2-2.5-2.3-1.5-7.7-9-8.4-11.7-.3-1.5-1.6-3.4-2.9-4.2-1.2-.8-2.7-3.2-3.4-5.4-.6-2.1-2.3-5.2-3.6-6.9-1.4-1.6-3.2-4.5-4-6.4s-2.6-4.4-4-5.5c-2-1.6-2.4-2.5-1.9-5.1.5-2.4.3-3.1-.9-3.1-2 0-4.7-3.8-4.7-6.7 0-1.2-.8-2.7-1.8-3.2s-1.8-1.9-1.9-3.1-.9-2.7-1.7-3.3c-.8-.7-1.6-2.3-1.8-3.7s-1-2.5-1.8-2.5c-1.9 0-8-12.2-7.7-15.5.2-1.9.9-2.6 3.7-3.2 1.9-.4 26.6-.7 54.8-.8 56.4-.1 55 .1 61-6.2 3-3.2 3.4-4.3 4.2-12.4.5-4.9.8-46 .8-91.4-.1-45.4.1-83.1.6-83.8 1.2-2 2-1.5 6.1 4z" fill="#f90"/></svg>
