<svg xmlns="http://www.w3.org/2000/svg" viewBox="0 0 983 860" xml:space="preserve">
  <path fill="#FFF" d="M600 861H1V1h983v860H600m6.375-32.124c56.406-17.356 107.198-45.007 151.579-83.928 82.94-72.735 130.444-164.208 142.795-273.752 4.729-41.945 2.743-83.818-5.964-125.134-24.285-115.24-85.44-206.032-184.31-269.856-96.5-62.294-202.194-80.813-314.491-57.12-99.58 21.01-180.891 72.767-242.976 153.165-68.833 89.137-96.7 190.743-84.737 302.585 10.386 97.109 51.055 180.57 120.013 249.513 68.424 68.409 151.309 108.289 247.527 119.774 57.6 6.876 114.222 1.632 170.564-15.247z"/>
  <path fill="#010100" d="M605.985 828.983c-55.952 16.772-112.574 22.016-170.174 15.14-96.218-11.485-179.103-51.365-247.527-119.774-68.958-68.943-109.627-152.404-120.013-249.513-11.963-111.842 15.904-213.448 84.737-302.585C215.093 91.853 296.404 40.096 395.984 19.086c112.297-23.693 217.991-5.174 314.49 57.12C809.347 140.03 870.5 230.82 894.785 346.062c8.708 41.316 10.694 83.189 5.965 125.134-12.351 109.544-59.855 201.017-142.795 273.752-44.381 38.92-95.173 66.572-151.969 84.035m-6.47-359.96L311.634 663.646c108.848 82.815 287.085 81.594 395.967-47.17 101.289-119.782 80.198-280.366 5.337-369.127L551.978 410.86h131.774l.236 1.064c-27.954 18.905-55.908 37.81-84.472 57.098m-93.357-254.367 53.606-68.409c-117.297-33.09-267.512 12.804-337.049 151.71-66.277 132.394-18.952 278.054 71.456 351.6l121.03-183.903H309.21l196.949-250.998z"/>
  <path fill="#FBC300" d="M599.82 468.831c28.26-19.096 56.214-38.001 84.168-56.906l-.236-1.064H551.978c53.707-54.56 107.295-108.997 160.96-163.512 74.86 88.76 95.95 249.345-5.338 369.128-108.882 128.763-287.12 129.984-395.967 47.17 96.073-64.95 191.978-129.787 288.188-194.816zm-93.88-253.895L309.21 465.654h105.992l-121.03 183.902c-90.408-73.545-137.733-219.205-71.456-351.599 69.537-138.906 219.752-184.8 337.05-151.71l-53.826 68.689z"/>
</svg>
