<svg width="30" height="24" viewBox="0 0 30 24" fill="none" xmlns="http://www.w3.org/2000/svg">
<path fill-rule="evenodd" clip-rule="evenodd" d="M12.0456 0.0126238C10.1091 0.105679 8.48032 0.33168 6.91186 0.724925C3.30996 1.62796 0.790802 3.27447 0.166551 5.13361C0.00131862 5.6257 -0.000261623 5.65364 1.56125e-05 8.08207L0.000265124 10.2983L0.0663026 10.5888C0.182797 11.1011 0.367547 11.4995 0.706412 11.9691C1.23843 12.7064 2.2105 13.4795 3.3015 14.033L3.65927 14.2146L3.65952 16.2121L3.65977 18.2097L3.72581 18.5002C3.88017 19.1791 4.20088 19.7538 4.75765 20.3491C5.75512 21.4157 7.51013 22.3773 9.61984 23.0133C11.9218 23.7073 14.5097 24.0414 17.2299 23.9959C18.9706 23.9668 20.4065 23.8212 21.9263 23.5196C26.2155 22.6685 29.1618 20.8832 29.8221 18.7353L29.8986 18.4863L29.9147 16.5223C29.9253 15.2205 29.941 14.5226 29.9612 14.4524C29.9822 14.3796 29.9936 13.6004 29.9977 11.9628C30.0042 9.36123 30.0085 9.44532 29.8424 8.98394C29.4353 7.85308 28.3044 6.76507 26.666 5.92788L26.2603 5.72055L26.2255 5.53369C25.9089 3.83108 23.9408 2.21697 20.9071 1.17167C19.0829 0.543129 16.8043 0.138763 14.4299 0.0221672C13.933 -0.00223081 12.4761 -0.00806753 12.0456 0.0126238ZM14.319 1.40525C16.052 1.48824 17.5888 1.70425 19.0514 2.07044C21.7031 2.73436 23.7464 3.8505 24.539 5.06797C25.0058 5.78509 25.003 6.42856 24.5299 7.13425C23.6003 8.52093 21.1326 9.7353 17.9871 10.3539C15.779 10.7882 13.2554 10.915 10.8674 10.7117C6.5682 10.3457 2.90364 8.90303 1.74247 7.1194C1.27383 6.39955 1.27663 5.76149 1.75151 5.05312C2.6811 3.66644 5.14889 2.45207 8.29437 1.83343C9.47459 1.60132 10.7472 1.45659 12.1427 1.39579C12.6171 1.37512 13.7969 1.38024 14.319 1.40525ZM26.8362 7.62277C27.8809 8.29809 28.5451 9.11813 28.6252 9.83157C28.7371 10.8283 27.7488 11.958 25.9828 12.8521C25.4429 13.1254 25.0208 13.3084 24.4514 13.5159C24.1038 13.6427 23.3545 13.8806 23.3031 13.8806C23.2906 13.8806 23.4119 13.801 23.5726 13.7038C24.9424 12.875 25.8374 11.88 26.1628 10.8239L26.2395 10.575L26.2478 8.92159L26.256 7.2682L26.3867 7.34244C26.4585 7.38327 26.6608 7.50941 26.8362 7.62277ZM1.67649 9.07727C2.67645 9.90999 4.22791 10.6793 5.96033 11.2016C8.2623 11.8955 10.8502 12.2297 13.5704 12.1842C14.1041 12.1752 14.7279 12.1546 14.9566 12.1383C19.134 11.841 22.6193 10.7296 24.6321 9.05304L24.8539 8.86831L24.8626 9.03008C24.8673 9.11904 24.8671 9.46571 24.8621 9.80042C24.8531 10.4017 24.852 10.4113 24.7717 10.6022C24.1921 11.9788 21.9698 13.2961 18.9825 14.0338C16.5169 14.6426 13.6367 14.8479 10.8674 14.6121C7.70483 14.3429 4.88809 13.5069 3.09222 12.3047C2.29442 11.7706 1.71214 11.1314 1.50643 10.564C1.46448 10.4483 1.42024 10.3495 1.40807 10.3445C1.3959 10.3394 1.38594 9.99865 1.38594 9.58725C1.38594 8.88198 1.38869 8.84145 1.43391 8.87728C1.4603 8.89813 1.56947 8.98815 1.67649 9.07727ZM28.6048 13.7008C28.5958 14.302 28.5947 14.3117 28.5144 14.5025C27.9348 15.8791 25.7124 17.1965 22.7252 17.9341C20.2596 18.543 17.3794 18.7482 14.6101 18.5125C10.6991 18.1795 7.32408 16.9696 5.8353 15.3667C5.71315 15.2352 5.59213 15.092 5.56635 15.0485L5.51947 14.9693L5.96862 15.1046C8.30646 15.8086 10.9208 16.14 13.6398 16.0769C14.2115 16.0636 14.9601 16.0588 15.3032 16.0662C16.398 16.0899 18.1285 16.0773 18.6439 16.0419C22.839 15.7533 26.3518 14.6384 28.3748 12.9534L28.5966 12.7687L28.6053 12.9305C28.61 13.0194 28.6098 13.3661 28.6048 13.7008ZM5.33599 16.9887C6.33595 17.8214 7.88742 18.5907 9.61984 19.1129C11.9218 19.8069 14.5097 20.141 17.2299 20.0955C17.7636 20.0866 18.3874 20.066 18.6161 20.0497C22.7935 19.7524 26.2788 18.641 28.2916 16.9644L28.5134 16.7797L28.5221 16.9415C28.5268 17.0304 28.5266 17.3771 28.5216 17.7118C28.5126 18.313 28.5115 18.3227 28.4312 18.5135C27.8516 19.8901 25.6293 21.2075 22.6421 21.9451C20.1764 22.554 17.2962 22.7592 14.5269 22.5235C11.3643 22.2542 8.5476 21.4183 6.75172 20.2161C5.95392 19.682 5.37165 19.0428 5.16594 18.4754C5.12399 18.3597 5.07975 18.2609 5.06757 18.2558C5.0554 18.2507 5.04545 17.91 5.04545 17.4986C5.04545 16.7934 5.0482 16.7528 5.09341 16.7887C5.11981 16.8095 5.22898 16.8995 5.33599 16.9887Z" fill="white" fill-opacity="0.5"/>
</svg>
