<?xml version="1.0" encoding="utf-8"?>
<!-- Generator: Adobe Illustrator 16.0.0, SVG Export Plug-In . SVG Version: 6.00 Build 0)  -->
<!DOCTYPE svg PUBLIC "-//W3C//DTD SVG 1.1//EN" "http://www.w3.org/Graphics/SVG/1.1/DTD/svg11.dtd">
<svg version="1.1" id="Layer_1" xmlns="http://www.w3.org/2000/svg" xmlns:xlink="http://www.w3.org/1999/xlink" x="0px" y="0px"
	 width="397.23px" height="397.23px" viewBox="-56.885 -113.77 397.23 397.23"
	 enable-background="new -56.885 -113.77 397.23 397.23" xml:space="preserve">
<rect x="-56.885" y="-113.77" fill="#7C55FB" width="397.23" height="397.23"/>
<g>
	<g>
		<defs>
			<rect id="SVGID_1_" width="283.46" height="283.46"/>
		</defs>
		<clipPath id="SVGID_2_">
			<use xlink:href="#SVGID_1_"  overflow="visible"/>
		</clipPath>
		<g clip-path="url(#SVGID_2_)">
			<g>
				<g>
					<g>
						<path fill="#FEA30A" d="M121.104,236.389c1.376,0.854,2.944,1.475,4.782,1.756c5.176,0.793,10.546,0.66,15.773,0.59
							c7.553-0.104,14.766-1.159,21.174-4.405c-2.737-12.757,0.285-33.561,0.285-33.561s-8.621-1.93-20.875-4.104
							c-12.29,2.174-20.907,4.104-20.907,4.104S124.706,223.968,121.104,236.389z"/>
						<path fill="#E2E2E2" d="M227.546,287.718c-1.895-25.539-9.907-50.045-33.086-57.201c-1.609-0.492-3.51-1.038-5.516-1.602
							c-3.14-0.91-7.186-2.056-11.23-3.09c-0.547-0.15-1.069-0.297-1.553-0.433c-2.681-0.726-5.447-1.312-8.269-1.765
							c-0.813-0.141-1.584-0.26-2.299-0.35c0,0-0.048,0.033-0.138,0.086c-0.142-0.021-0.272-0.037-0.403-0.074
							c0,0,0.007,0.108,0.018,0.308c-2.829,1.682-16.457,9.422-22.975,6.508c-7.241,2.883-22.39-5.969-23.588-6.681
							c0.001-0.061,0.005-0.109,0.007-0.135c0-0.022,0-0.022,0-0.022c-0.746,0.159-1.507,0.312-2.273,0.459
							c-0.974,0.177-2.015,0.387-3.107,0.625c-0.813,0.166-1.629,0.33-2.443,0.497c-0.848,0.191-1.72,0.404-2.572,0.615
							c-6.614,1.678-11.529,3.164-17.833,4.961c-2.005,0.57-3.876,1.287-5.647,2.117c-0.119,0.057-0.245,0.106-0.365,0.168
							c-0.557,0.27-1.096,0.553-1.63,0.848c-0.06,0.033-0.125,0.064-0.19,0.099c-0.845,0.472-1.653,0.983-2.443,1.515
							c5.328,7.56,8.489,16.711,8.489,26.494c0,20.793-14.237,38.754-33.344,44.539c-2.227,15.021-5.267,37.179-8.001,60.245
							c0.097,0.006,0.193,0.013,0.289,0.017c0,0.003,0,0.006,0,0.006c6.882,0.466,13.785,0.711,20.701,0.799
							c0.06,0,0.12,0.001,0.181,0.001c0.975,0.013,1.955,0.018,2.931,0.024c0.465,0.004,0.928,0.009,1.389,0.011
							c0.499,0.002,0.997,0,1.496,0c2.299,0,4.598-0.008,6.895-0.035c0.044,0,0.087,0,0.13-0.001
							c4.542-29.921,8.741-56.838,9.88-64.219c-0.501,7.033-2.325,32.25-4.631,64.142c0.981-0.02,1.96-0.054,2.939-0.077v0.016
							c2.378-0.056,4.753-0.132,7.128-0.203c1.093-0.032,2.186-0.061,3.277-0.093c3.94-0.13,7.877-0.27,11.803-0.422
							c7.914-0.307,15.827-0.523,23.729-0.709c0,0,0-0.005,0-0.008c4.471-0.1,8.938-0.183,13.406-0.25c0,0,0,0.003,0,0.005
							c11.948-0.184,23.896-0.254,35.844-0.249c3.463,0.003,6.929,0.014,10.39,0.027c1.106,0.004,2.211,0.004,3.321,0.011
							c-2.463-34.06-4.338-60.06-4.584-63.585c0.569,3.722,4.951,31.727,9.797,63.619c8.152,0.054,16.3,0.125,24.453,0.221
							c3.129,0.035,6.258,0.098,9.388,0.139C232.782,328.14,227.71,293.22,227.546,287.718z"/>
						<g>
							<path fill="#7C55FB" d="M153.166,365.381l-6.129-119.563l-0.052-0.828h-9.873l-0.048,0.803l-5.828,120.012
								C138.543,365.617,145.857,365.476,153.166,365.381z"/>
							<path fill="#7C55FB" d="M134.421,238.893l2.503,5.694l0.188,0.401h9.873l0.216-0.401l2.057-4.678
								c-3.24-4.441-7.159-9.759-7.159-9.759S138.08,234.619,134.421,238.893z"/>
							<polygon fill="#6D52CE" points="137.064,245.792 137.112,245.91 146.985,245.91 147.037,245.817 146.985,244.989 
								137.112,244.989 							"/>
						</g>
						<path fill="#E2E2E2" d="M128.915,245.605c0.945-1.372,3.142-3.995,5.506-6.713c3.659-4.273,7.677-8.741,7.677-8.741
							s3.919,5.315,7.159,9.759c1.938,2.646,3.613,4.963,4.111,5.695c9.231-8.507,17.857-20.035,8.502-28.281
							c0,0,1.891,11.694-19.655,12.735c-10.3-0.429-18.171-4.728-19.494-12.497C118.163,221.126,113.181,227.389,128.915,245.605z"
							/>
						<path fill="#0F156D" d="M81.902,365.498c4.973-32.781,9.539-61.975,10.123-65.781c-0.255,3.597-2.204,30.611-4.744,65.701
							c8.404-0.162,16.792-0.455,25.149-0.775c7.911-0.31,15.825-0.528,23.729-0.712c0.828-18.208,1.416-31.286,1.416-31.707
							c-20.297-78.716-18.266-109.667-18.191-110.705c0-0.022,0-0.022,0-0.022c-1.651,0.354-3.36,0.661-5.056,1.018
							c-0.924,0.188-1.845,0.377-2.767,0.564c-0.85,0.189-1.724,0.403-2.571,0.612c-6.617,1.679-11.533,3.167-17.84,4.964
							c-23.321,6.639-30.238,31.751-32.13,57.288c-1.153,5.169-6.494,40.739-10.999,78.734
							C59.273,365.447,70.591,365.628,81.902,365.498z"/>
						<path fill="#0F156D" d="M199.112,363.467c-2.46-34.061-4.331-60.06-4.579-63.585c0.57,3.721,4.952,31.727,9.797,63.621
							c8.15,0.052,16.299,0.124,24.453,0.22c3.131,0.035,6.256,0.096,9.385,0.137c-4.521-37.495-9.586-72.413-9.752-77.918
							c-1.895-25.537-9.91-50.041-33.088-57.2c-5.193-1.58-13.41-3.75-18.302-5.121c-0.188-0.047-0.353,0.049-0.519,0
							c-3.237-0.875-6.834-1.348-10.062-2.009c-0.191-0.024-0.355-0.046-0.525-0.094c0,0,0.072,0.994,0.053,3.097
							c-0.053,9.66-1.587,42.547-17.389,107.585c-0.127,0.535,0.308,13.473,0.979,31.479
							C166.08,363.426,182.591,363.381,199.112,363.467z"/>
						<path fill="#FFFFFF" d="M128.915,245.605c0.945-1.372,3.142-3.995,5.506-6.713c3.659-4.273,7.677-8.741,7.677-8.741
							s3.919,5.315,7.159,9.759c1.938,2.646,3.613,4.963,4.111,5.695c9.231-8.507,17.857-20.035,8.502-28.281
							c0,0,1.891,11.694-19.655,12.735c-10.3-0.429-18.171-4.728-19.494-12.497C118.163,221.126,113.181,227.389,128.915,245.605z"
							/>
					</g>
				</g>
				<g>
					<path fill="#FFFFFF" d="M140.886,219.351c0,0-24.613,1.146-38.969-31.678c-2.978-3.938-7.012-7.213-11.766-9.557l0,0
						c-23.457-11.558-34.983-35.033-28.177-57.384l7.923-26.028c2.945-23.89,28.728-43.102,62.65-44.542
						c2.687-0.113,5.463-0.175,8.333-0.175h0.913c2.867,0,5.646,0.062,8.335,0.175c33.92,1.441,59.705,20.652,62.646,44.542
						l7.929,26.028c6.801,22.351-4.725,45.826-28.182,57.384l0,0c-4.755,2.344-8.789,5.619-11.762,9.557
						c0,0-11.827,29.447-38.545,31.742"/>
					<g>
						<path fill="#FEA30A" d="M63.891,13.582c2.022-6.378,3.504-5.049,9.19-3.125c7.862,2.662,13.915,8.227,19.939,13.823
							c1.125,1.043,12.486,12.419,16.447,17.656c0.873,1.157,1.909,0.906,3.103,0.487c19.443-6.809,38.896-6.308,58.342-0.016
							c0.989,0.318,1.951,0.854,2.805-0.204c4.127-5.074,17.666-19.827,20.382-22.034c5.716-4.642,11.937-8.177,19.071-9.92
							c3.091-0.752,4.703,0.243,5.85,3.271c3.037,8.019,2.67,16.286,1.785,24.548c-0.643,5.962-1.812,11.865-2.75,17.792
							c-2.229,7.791-4.319,15.626-6.747,23.346c-0.916,2.918-0.737,5.262,0.687,7.944c7.332,13.721,10.489,28.579,10.586,44.218
							c-14.795-2.593-28.463-0.11-40.515,9.77c-1.78,1.464-3.999,4.505-5.213,4.109c-2.028-0.66-1.917-4.235-3.136-6.385
							c-0.771-1.375-1.365-2.871-2.146-4.246c-11.869-20.968-38.57-24.105-54.626-6.423c-4.091,4.506-7.108,9.762-9.505,15.414
							c-0.766,1.789-1.293,2.695-3.093,0.815c-12.333-12.868-27.329-16.353-44.089-13.392c-0.052-0.93-0.211-1.87-0.142-2.79
							c1.109-14.529,4.772-28.332,10.799-41.462c0.649-1.407,1.885-2.762,1.167-4.471C68.686,74.217,60.305,24.888,63.891,13.582z
							 M213.585,35.686c0.113-3.783-0.112-7.477-1.52-11.022c-0.816-2.053-1.682-2.842-4.029-1.792
							c-10.533,4.729-18.82,12.555-26.953,20.669c-1.863,1.861-0.578,2.568,0.722,3.578c5.837,4.51,11.759,8.917,16.086,15.201
							c1.854,2.696,3.932,5.231,5.916,7.83c1.005,1.317,1.912,1.772,2.603-0.304C210.097,58.751,213.007,47.482,213.585,35.686z"/>
						<path fill="#FE8300" d="M213.955,34.879c-0.596,12.812-3.57,25.048-7.338,37.1c-0.705,2.255-1.634,1.761-2.66,0.33
							c-2.028-2.824-4.148-5.579-6.043-8.504c-4.424-6.82-10.476-11.61-16.437-16.509c-1.332-1.094-2.646-1.86-0.739-3.879
							c8.311-8.814,16.777-17.318,27.54-22.455c2.397-1.141,3.284-0.279,4.119,1.948C213.833,26.761,214.062,30.768,213.955,34.879z
							"/>
						<path fill="#FE8300" d="M68.498,34.879c0.592,12.812,3.566,25.048,7.333,37.1c0.708,2.255,1.631,1.761,2.661,0.33
							c2.025-2.824,4.152-5.579,6.045-8.504c4.421-6.82,10.47-11.61,16.435-16.509c1.333-1.094,2.646-1.86,0.74-3.879
							c-8.315-8.814-16.781-17.318-27.544-22.455c-2.398-1.141-3.282-0.279-4.119,1.948C68.616,26.761,68.386,30.768,68.498,34.879z
							"/>
					</g>
					<path fill="#0F156D" d="M142.057,121.189c-21.842,0.004-24.98,18.01-24.98,18.01l11.263,10.294
						c7.767,7.098,19.671,7.098,27.435-0.002l11.271-10.302C167.044,139.19,163.903,121.186,142.057,121.189z"/>
					<path fill="#FFBE5F" d="M136.498,101.324c-2.405,21.252-47.132,28.897-44.958,0.684c1.594-20.694,34.516-29.341,43.138-13.086
						c2.1,3.969,1.819,8.215,1.819,13.086"/>
					<g>
						<path fill="#0F156D" d="M130.533,90.454c0,3.929-3.184,7.111-7.111,7.111c-3.924,0-7.109-3.18-7.109-7.109
							c0-3.926,3.182-7.109,7.108-7.109C127.347,83.347,130.533,86.53,130.533,90.454z"/>
						<path fill="#FFFFFF" d="M127.336,87.775c0,1.463-1.184,2.648-2.649,2.648c-1.459,0-2.645-1.185-2.645-2.645
							c0-1.463,1.186-2.65,2.645-2.65C126.149,85.128,127.336,86.314,127.336,87.775z"/>
					</g>
					<path fill="#EF8630" d="M136.688,101.324c-2.402,21.252-47.13,28.897-44.958,0.684c0,0,11.689,19.927,43.414,0.251
						L136.688,101.324z"/>
					<path fill="#D2702B" d="M127.778,78.509c0,0-0.197,0.003-0.565,0.012c-0.352,0.008-0.99,0.015-1.363,0.044
						c-0.415-0.003-1.114,0.082-1.898,0.184c-0.792,0.127-1.696,0.3-2.706,0.55c-2.016,0.505-4.431,1.319-7.047,2.374
						c-2.621,1.058-5.437,2.333-8.312,3.637c-2.867,1.302-5.807,2.605-8.658,3.687c-1.438,0.527-2.833,1.024-4.206,1.411
						c-1.363,0.396-2.685,0.707-3.929,0.913c-0.622,0.101-1.214,0.198-1.794,0.244c-0.572,0.069-1.12,0.101-1.641,0.109
						c-0.512,0.028-1,0.012-1.451-0.009c-0.447-0.01-0.856-0.038-1.229-0.093c-0.743-0.068-1.317-0.186-1.707-0.276
						c-0.391-0.083-0.597-0.125-0.597-0.125c-0.655-0.138-1.072-0.782-0.935-1.435c0.122-0.583,0.644-0.978,1.218-0.962l0.127,0.004
						c0,0,0.181,0.004,0.519,0.013c0.335,0.017,0.828,0.03,1.456-0.024c0.312-0.008,0.658-0.047,1.034-0.107
						c0.375-0.047,0.778-0.104,1.209-0.207c0.429-0.084,0.884-0.192,1.361-0.338c0.477-0.122,0.974-0.3,1.489-0.479
						c1.031-0.366,2.133-0.838,3.276-1.405c1.147-0.551,2.334-1.229,3.554-1.937c2.437-1.457,4.98-3.167,7.559-4.937
						c2.575-1.765,5.202-3.572,7.794-5.197c2.6-1.623,5.185-3.058,7.585-4.138c1.199-0.541,2.351-0.988,3.404-1.355
						c1.065-0.348,1.986-0.637,2.925-0.836c0.971-0.232,1.409-0.302,1.782-0.379c0.362-0.071,0.555-0.109,0.555-0.109
						c3.055-0.602,6.02,1.389,6.621,4.442c0.602,3.055-1.386,6.019-4.441,6.621c-0.319,0.062-0.637,0.098-0.95,0.104L127.778,78.509
						L127.778,78.509z"/>
					<path fill="#FFBE5F" d="M143.356,101.324c2.404,21.252,47.132,28.897,44.958,0.684c-1.596-20.694-34.518-29.341-43.141-13.086
						c-2.098,3.969-1.817,8.215-1.817,13.086"/>
					<g>
						<path fill="#0F156D" d="M149.324,90.454c0,3.929,3.182,7.111,7.108,7.111c3.925,0,7.11-3.18,7.11-7.109
							c0-3.926-3.185-7.109-7.108-7.109C152.507,83.347,149.324,86.53,149.324,90.454z"/>
						<path fill="#FFFFFF" d="M155.582,87.775c0,1.463,1.184,2.648,2.647,2.648c1.459,0,2.646-1.185,2.646-2.645
							c0-1.463-1.188-2.65-2.646-2.65C156.769,85.128,155.582,86.314,155.582,87.775z"/>
					</g>
					<path fill="#EF8630" d="M143.169,101.324c2.399,21.252,47.127,28.897,44.955,0.684c0,0-11.688,19.927-43.412,0.251
						L143.169,101.324z"/>
					<path fill="#D2702B" d="M153.269,67.341c0,0,0.189,0.038,0.552,0.109c0.375,0.078,0.812,0.147,1.782,0.379
						c0.939,0.2,1.861,0.488,2.926,0.836c1.055,0.367,2.207,0.814,3.405,1.355c2.399,1.08,4.985,2.515,7.584,4.138
						c2.593,1.625,5.219,3.432,7.794,5.197c2.58,1.769,5.124,3.48,7.559,4.937c1.221,0.708,2.407,1.386,3.555,1.937
						c1.145,0.567,2.246,1.039,3.277,1.405c0.516,0.18,1.012,0.358,1.488,0.479c0.477,0.146,0.932,0.254,1.359,0.338
						c0.433,0.103,0.836,0.16,1.212,0.207c0.376,0.061,0.723,0.099,1.032,0.107c0.629,0.054,1.121,0.041,1.457,0.024
						c0.338-0.009,0.519-0.013,0.519-0.013l0.127-0.004c0.671-0.018,1.228,0.509,1.243,1.18c0.02,0.593-0.398,1.1-0.96,1.217
						c0,0-0.207,0.042-0.597,0.125c-0.392,0.09-0.965,0.208-1.709,0.276c-0.371,0.055-0.781,0.083-1.229,0.093
						c-0.451,0.021-0.938,0.037-1.451,0.009c-0.521-0.008-1.066-0.04-1.64-0.109c-0.581-0.046-1.175-0.143-1.796-0.244
						c-1.242-0.206-2.564-0.517-3.928-0.913c-1.373-0.387-2.768-0.883-4.205-1.411c-2.854-1.082-5.793-2.385-8.66-3.687
						c-2.873-1.304-5.688-2.58-8.311-3.637c-2.615-1.055-5.031-1.869-7.048-2.374c-1.009-0.25-1.914-0.422-2.704-0.55
						c-0.785-0.103-1.482-0.188-1.898-0.184c-0.375-0.029-1.01-0.036-1.364-0.044c-0.366-0.008-0.562-0.012-0.562-0.012h-0.009
						c-3.112-0.058-5.589-2.628-5.53-5.743c0.062-3.112,2.633-5.589,5.744-5.529C152.61,67.243,152.958,67.281,153.269,67.341z"/>
				</g>
			</g>
			<g>
				<path fill="#0F156D" d="M184.196,160.723c-0.151,0.417-6.629,17.348-18.938,29.205c-6.961,6.708-15.786,11.794-26.395,11.358
					c-10.653-0.438-18.595-5.986-24.392-12.91c-10.31-12.301-13.854-28.941-13.854-28.941c3.502,2.977,7.094,5.396,10.726,7.341
					c20,10.72,41.228,7.021,55.579,1.991c4.859-1.7,8.929-3.559,11.896-5.057C182.138,162.031,184.08,160.798,184.196,160.723z"/>
				<path fill="#0F156D" d="M176.949,153.774c0,0,6.59,0.737,15.688,7.575l0,0c0,0-6.32-0.564-9.869,2.24
					c-0.82,0.646-2.014-0.518-2.87-1.146C179.896,162.443,181.263,158.943,176.949,153.774z"/>
				<path fill="#0F156D" d="M91.977,160.48c0,0,7.253-5.293,16.921-3.5c0,0-5.912,0.996-7.146,8.089
					C101.753,165.069,100.619,160.445,91.977,160.48z"/>
				<path fill="#FFFFFF" d="M167.042,170.121c-0.539,2.123-1.221,4.012-1.84,5.512c-0.916,2.213-1.695,3.572-1.695,3.572
					c-11.471,6.109-22.875,6.211-31.826,4.553c-10.41-1.93-17.499-6.239-17.499-6.239c-1.144-1.479-1.898-3.901-2.388-6.239
					c-0.185-0.863-0.333-1.722-0.448-2.511C131.246,180.024,152.582,175.74,167.042,170.121z"/>
				<path fill="#F1F2F2" d="M167.042,170.121c-0.539,2.123-1.221,4.012-1.84,5.512c-11.963,5.131-23.854,4.945-33.306,3.191
					c-11.514-2.133-19.414-6.594-19.414-6.594c-0.246-0.285-0.473-0.607-0.688-0.952c-0.185-0.864-0.333-1.722-0.448-2.511
					C131.246,180.024,152.582,175.74,167.042,170.121z"/>
				<path fill="#FFFFFF" d="M160.8,183.219c-0.562,2.12-1.211,4.016-1.787,5.522c-0.85,2.221-1.531,3.596-1.531,3.596
					c-8.982,6.385-17.459,6.804-23.978,5.404c-7.582-1.626-12.516-5.707-12.516-5.707c-0.735-1.44-1.111-3.824-1.296-6.131
					c-0.071-0.854-0.114-1.697-0.14-2.48C133.465,194.048,149.634,189.199,160.8,183.219z"/>
				<path fill="#F1F2F2" d="M160.425,188.098c-0.562,2.123-1.213,4.015-1.787,5.521c-9.273,5.43-18.09,5.573-24.972,4.101
					c-8.387-1.8-13.911-6.009-13.911-6.009c-0.16-0.275-0.305-0.592-0.439-0.926c-0.071-0.854-0.115-1.701-0.141-2.48
					C133.089,198.928,149.259,194.08,160.425,188.098z"/>
			</g>
		</g>
	</g>
</g>
</svg>
